# xmcd
#
# Track frame offsets:
#	150
#	12000
#	29700
#	47550
#	60525
#	78150
#	96150
#	112575
#	124950
#	139725
#	151575
#	169275
#	187125
#	200100
#	217725
#	235725
#	252150
#	264525
#
# Disc length: 3724 seconds
#
# Revision: 0
# Processed by: cddbd v1.4PL0 Copyright (c) Steve Scherf et al.
# Submitted via: audiograbber 1.82.02
#
DISCID=ee0e8a12
DTITLE=Various Artist - Country Hits Monthly - December 1996
DYEAR=1900
DGENRE=
TTITLE0=1 - 1
TTITLE1=2 - 2
TTITLE2=3 - 3
TTITLE3=4 - 4
TTITLE4=5 - 5
TTITLE5=6 - 6
TTITLE6=7 - 7
TTITLE7=8 - 8
TTITLE8=9 - 9
TTITLE9=Alan Jackson - Little Bitty
TTITLE10=Shania Twain - God Bless The Child
TTITLE11=Tim McGraw - Maybe We Should Just Sleep On It
TTITLE12=Mary Chapin-Carpenter - Let Me Into Your Heart
TTITLE13=John Michael Montgomery - Friends
TTITLE14=Mindy McCready - Maybe He'll Notice Her Now
TTITLE15=Tracy Byrd - Big Love
TTITLE16=Gary Allan - Her Man
TTITLE17=Tracy Lawrence - Is That A Tear
EXTD=
EXTT0=
EXTT1=
EXTT2=
EXTT3=
EXTT4=
EXTT5=
EXTT6=
EXTT7=
EXTT8=
EXTT9=
EXTT10=
EXTT11=
EXTT12=
EXTT13=
EXTT14=
EXTT15=
EXTT16=
EXTT17=
PLAYORDER=
